# xmcd CD database file
#
# Track frame offsets:
#	150
#	12946
#	29544
#	44582
#	59712
#	73350
#	90272
#	102030
#	114338
#	128913
#	146156
#	156638
#	168519
#	181407
#	194979
#	208150
#	223560
#	235799
#	253246
#	273419
#	284553
#	301240
#	318612
#	337522
#
# Disc length: 4666 seconds
#
# Revision: 2
# Processed by: cddbd v1.5.2PL0 Copyright (c) Steve Scherf et al.
# Submitted via: CDex 2.20
#
DISCID=7c123818
DTITLE=Cat Stevens - Very Best Of
DYEAR=2003
DGENRE=Rock
TTITLE0=Moonshadow
TTITLE1=Father And Son
TTITLE2=Morning Has Broken
TTITLE3=Wild World
TTITLE4=The First Cut Is The Deepest
TTITLE5=Lady D'arbanville
TTITLE6=Oh Very Young
TTITLE7=Matthew and Son
TTITLE8=Sitting
TTITLE9=Hard Headed Woman
TTITLE10=I Love My Dog
TTITLE11=Ruby Love
TTITLE12=Don't Be Shy
TTITLE13=Can't Keep It In
TTITLE14=Here Comes My Baby
TTITLE15=Into White
TTITLE16=(Remember The Days Of The) Old Schoolyard
TTITLE17=Where Do The Children Play?
TTITLE18=How Can I Tell You
TTITLE19=Another Saturday Night
TTITLE20=Sad Lisa
TTITLE21=Just Another Night
TTITLE22=Peace Train
TTITLE23=If You Want To Sing Out, Sing Out
EXTD=YEAR: 2003
EXTT0=
EXTT1=
EXTT2=
EXTT3=
EXTT4=
EXTT5=
EXTT6=
EXTT7=
EXTT8=
EXTT9=
EXTT10=
EXTT11=
EXTT12=
EXTT13=
EXTT14=
EXTT15=
EXTT16=
EXTT17=
EXTT18=
EXTT19=
EXTT20=
EXTT21=
EXTT22=
EXTT23=
PLAYORDER=
